<svg width="198" height="139" viewBox="0 0 198 139" fill="none" xmlns="http://www.w3.org/2000/svg">
<g clip-path="url(#clip0_10_550)">
<path d="M22.0922 111.198C17.8388 111.198 13.7252 109.687 10.4926 106.938C9.41429 106.02 8.2653 104.425 7.07768 102.196C6.31979 100.76 5.8953 99.1734 5.83543 97.553C5.77556 95.9325 6.08185 94.3193 6.73175 92.8321C6.1053 93.4658 5.4124 94.031 4.6649 94.5179L4.28704 94.7679L4.26521 94.3174C4.25088 94.0243 4.24363 93.7322 4.24363 93.4493C4.24363 91.7818 5.51192 90.0898 4.92699 88.5485C2.46168 82.0523 -5.35767 75.5964 5.97495 65.5427C7.02329 64.6127 5.62287 62.7532 5.62287 61.3461C5.62287 47.556 20.6908 26.8697 30.7777 36.337C36.6655 41.8631 48.9325 45.7888 54.6599 53.4753L54.7358 53.7031L54.5123 53.793C53.3679 54.2712 52.1626 54.59 50.9306 54.7403C52.2441 55.0067 53.5846 55.1183 54.9243 55.073L55.1321 55.0658L55.1827 55.2666C55.6811 57.2551 55.9329 59.2967 55.9326 61.346L55.9317 61.5676C55.927 63.1241 56.2523 64.6642 56.8864 66.0874C57.5205 67.5105 58.449 68.7848 59.6116 69.8272C61.4479 71.4921 62.9152 73.5191 63.92 75.7791C64.9249 78.0392 65.4452 80.4826 65.4478 82.9536C65.4478 85.8771 63.4497 89.7146 61.7734 92.4192C61.3486 93.1081 60.7724 93.6924 60.0881 94.1282C59.4037 94.5641 58.629 94.8403 57.8221 94.9359C57.0577 95.0318 56.2815 94.9594 55.5484 94.7239C54.8154 94.4884 54.1433 94.0955 53.5798 93.5731C54.3732 95.1595 55.4071 96.6151 56.6453 97.889L56.8741 98.1234L56.5901 98.2879C53.8611 99.8703 50.7585 100.703 47.5995 100.702L47.4145 100.702C42.6185 100.702 38.0661 102.549 34.9247 105.771C33.2568 107.48 31.2625 108.84 29.0589 109.772C26.8553 110.703 24.4867 111.188 22.0922 111.198Z" fill="#E6E6E6"/>
<path d="M15.7982 139C15.7209 139 15.6463 138.972 15.588 138.922C15.5298 138.871 15.4917 138.802 15.4808 138.726C15.4672 138.631 14.1314 129.051 15.3311 116.319C16.439 104.561 19.9968 87.6253 30.6548 73.7162C30.6803 73.6828 30.7122 73.6548 30.7487 73.6336C30.7851 73.6125 30.8254 73.5987 30.8672 73.593C30.909 73.5874 30.9515 73.59 30.9923 73.6007C31.0331 73.6114 31.0714 73.63 31.1049 73.6555C31.1385 73.6809 31.1667 73.7126 31.1879 73.7489C31.2091 73.7852 31.2229 73.8253 31.2285 73.8668C31.2341 73.9084 31.2315 73.9507 31.2206 73.9912C31.2098 74.0318 31.1911 74.0698 31.1654 74.1032C20.5995 87.8921 17.0703 104.704 15.9702 116.379C14.7776 129.036 16.1028 138.541 16.1164 138.636C16.1228 138.681 16.1194 138.727 16.1064 138.771C16.0933 138.815 16.071 138.856 16.0408 138.89C16.0106 138.925 15.9734 138.952 15.9315 138.971C15.8896 138.99 15.8442 139 15.7982 139H15.7982Z" fill="#3F3D56"/>
<path d="M25.5299 92.9837C25.4621 92.9837 25.396 92.9624 25.3411 92.9228C25.2862 92.8833 25.2454 92.8274 25.2244 92.7633C25.2034 92.6992 25.2034 92.6301 25.2243 92.566C25.2452 92.5018 25.286 92.4459 25.3409 92.4063C28.3778 90.3622 31.6585 88.7015 35.1075 87.4624C40.4959 85.5007 48.6898 83.7223 57.1253 86.392C57.1655 86.4047 57.2027 86.4251 57.2349 86.4522C57.2671 86.4792 57.2937 86.5123 57.313 86.5495C57.3324 86.5867 57.3442 86.6274 57.3478 86.6691C57.3513 86.7109 57.3466 86.753 57.3338 86.7929C57.321 86.8328 57.3005 86.8699 57.2733 86.9019C57.2461 86.934 57.2128 86.9603 57.1754 86.9796C57.138 86.9989 57.0971 87.0106 57.0551 87.0141C57.0131 87.0177 56.9708 87.0129 56.9306 87.0002C48.668 84.3854 40.6226 86.1344 35.3282 88.0619C31.9347 89.2797 28.7066 90.9125 25.7183 92.9227C25.6636 92.9624 25.5976 92.9837 25.5299 92.9837Z" fill="#3F3D56"/>
<path d="M154.644 111.198C150.391 111.198 146.277 109.687 143.045 106.938C141.967 106.02 140.818 104.425 139.63 102.196C138.872 100.76 138.448 99.1734 138.388 97.5529C138.328 95.9325 138.634 94.3193 139.284 92.8321C138.658 93.4658 137.965 94.031 137.217 94.5179L136.839 94.7679L136.817 94.3174C136.803 94.0243 136.796 93.7322 136.796 93.4493C136.796 91.7818 138.064 90.0898 137.479 88.5485C135.014 82.0523 127.195 75.5964 138.527 65.5427C139.576 64.6126 138.175 62.7532 138.175 61.3461C138.175 47.556 157.775 23.6987 163.33 36.3369C170.181 51.9231 181.983 50.256 187.212 53.4753L187.288 53.7031L187.065 53.793C185.92 54.2712 184.715 54.59 183.483 54.7403C184.796 55.0067 186.137 55.1183 187.477 55.073L187.684 55.0658L187.735 55.2666C188.233 57.2551 188.485 59.2967 188.485 61.346L188.484 61.5676C188.479 63.1241 188.805 64.6642 189.439 66.0873C190.073 67.5105 191.001 68.7848 192.164 69.8272C194 71.492 195.467 73.5191 196.472 75.7791C197.477 78.0392 197.997 80.4826 198 82.9536C198 85.8771 196.002 89.7146 194.326 92.4191C193.901 93.108 193.325 93.6924 192.64 94.1282C191.956 94.5641 191.181 94.8402 190.374 94.9359C189.61 95.0317 188.834 94.9594 188.101 94.7239C187.368 94.4884 186.696 94.0955 186.132 93.5731C186.925 95.1595 187.959 96.6151 189.198 97.889L189.426 98.1233L189.142 98.2879C186.413 99.8702 183.311 100.703 180.152 100.702L179.967 100.702C175.171 100.702 170.618 102.549 167.477 105.771C165.809 107.48 163.815 108.84 161.611 109.772C159.408 110.703 157.039 111.188 154.644 111.198Z" fill="#E6E6E6"/>
<path d="M148.35 139C148.273 139 148.199 138.972 148.14 138.922C148.082 138.871 148.044 138.802 148.033 138.726C148.019 138.631 146.684 129.051 147.883 116.319C148.991 104.561 152.549 87.6253 163.207 73.7162C163.233 73.6828 163.264 73.6548 163.301 73.6336C163.337 73.6125 163.378 73.5987 163.419 73.593C163.461 73.5874 163.504 73.59 163.545 73.6007C163.585 73.6114 163.624 73.63 163.657 73.6555C163.691 73.6809 163.719 73.7126 163.74 73.7489C163.761 73.7852 163.775 73.8253 163.781 73.8668C163.786 73.9084 163.784 73.9507 163.773 73.9912C163.762 74.0318 163.743 74.0698 163.718 74.1032C153.152 87.8921 149.623 104.704 148.522 116.379C147.33 129.036 148.655 138.541 148.669 138.636C148.675 138.681 148.672 138.727 148.659 138.771C148.646 138.815 148.623 138.856 148.593 138.89C148.563 138.925 148.526 138.952 148.484 138.971C148.442 138.99 148.396 139 148.35 139H148.35Z" fill="#3F3D56"/>
<path d="M157.201 93.6405C157.133 93.6406 157.067 93.6193 157.012 93.5797C156.958 93.5401 156.917 93.4843 156.896 93.4201C156.875 93.356 156.875 93.287 156.896 93.2228C156.917 93.1587 156.957 93.1028 157.012 93.0632C160.049 91.019 163.33 89.3583 166.779 88.1193C172.167 86.1576 180.361 84.3792 188.797 87.0488C188.837 87.0616 188.874 87.082 188.906 87.109C188.939 87.1361 188.965 87.1691 188.984 87.2064C189.004 87.2436 189.016 87.2842 189.019 87.326C189.023 87.3678 189.018 87.4098 189.005 87.4498C188.992 87.4897 188.972 87.5267 188.945 87.5588C188.917 87.5908 188.884 87.6172 188.847 87.6365C188.809 87.6557 188.768 87.6674 188.726 87.671C188.684 87.6745 188.642 87.6698 188.602 87.6571C180.339 85.0423 172.294 86.7913 167 88.7188C163.606 89.9366 160.378 91.5694 157.39 93.5796C157.335 93.6192 157.269 93.6406 157.201 93.6405Z" fill="#3F3D56"/>
<path d="M142.51 57.2558C142.505 57.1886 142.522 57.1215 142.558 57.0642C142.594 57.0069 142.647 56.9624 142.709 56.937C142.772 56.9115 142.842 56.9065 142.907 56.9227C142.973 56.9388 143.032 56.9753 143.076 57.0268C145.345 59.8917 147.247 63.0259 148.738 66.3575C151.094 71.5606 153.468 79.5594 151.397 88.1181C151.388 88.1588 151.37 88.1973 151.345 88.2312C151.32 88.2652 151.289 88.2939 151.253 88.3158C151.217 88.3377 151.177 88.3524 151.135 88.3589C151.094 88.3655 151.051 88.3638 151.01 88.354C150.969 88.3442 150.931 88.3264 150.896 88.3018C150.862 88.2771 150.833 88.246 150.811 88.2102C150.789 88.1744 150.775 88.1347 150.768 88.0933C150.762 88.0519 150.763 88.0096 150.773 87.9688C152.801 79.5854 150.467 71.7319 148.153 66.6196C146.687 63.3415 144.817 60.2574 142.585 57.4383C142.541 57.3869 142.515 57.323 142.51 57.2558Z" fill="#3F3D56"/>
<path d="M10.6186 55.2852C10.6137 55.218 10.6303 55.1509 10.6661 55.0936C10.7018 55.0364 10.7549 54.9918 10.8177 54.9664C10.8805 54.941 10.9498 54.936 11.0156 54.9521C11.0815 54.9682 11.1405 55.0047 11.1842 55.0562C13.4532 57.9211 15.3552 61.0553 16.8464 64.3869C19.202 69.59 21.5759 77.5888 19.5056 86.1475C19.4958 86.1883 19.478 86.2267 19.4532 86.2606C19.4284 86.2946 19.3971 86.3233 19.3612 86.3452C19.3252 86.3671 19.2853 86.3818 19.2436 86.3883C19.202 86.3949 19.1594 86.3932 19.1184 86.3834C19.0774 86.3736 19.0388 86.3559 19.0047 86.3312C18.9706 86.3065 18.9417 86.2754 18.9197 86.2396C18.8977 86.2039 18.883 86.1641 18.8764 86.1227C18.8699 86.0813 18.8716 86.039 18.8815 85.9982C20.9092 77.6149 18.5755 69.7613 16.2609 64.649C14.795 61.3709 12.9248 58.2868 10.6934 55.4677C10.6497 55.4163 10.6235 55.3524 10.6186 55.2852Z" fill="#3F3D56"/>
<path d="M99.216 23.018C98.833 22.6275 98.3618 22.3335 97.8417 22.1604C97.3215 21.9872 96.7673 21.9399 96.2251 22.0223C95.6829 22.1048 95.1682 22.3147 94.7239 22.6345C94.2795 22.9543 93.9183 23.3749 93.6702 23.8614C88.4476 27.4758 85.1366 32.3188 83.8874 38.4871L74.6223 30.1279C74.7309 29.4286 74.6141 28.7131 74.2885 28.0839C73.9629 27.4548 73.4454 26.9443 72.81 26.6258C72.1746 26.3072 71.4542 26.1969 70.7519 26.3107C70.0496 26.4245 69.4016 26.7566 68.9008 27.2592C68.4 27.7619 68.0722 28.4093 67.9643 29.1087C67.8565 29.8081 67.9741 30.5235 68.3004 31.1523C68.6267 31.7811 69.1449 32.291 69.7806 32.6088C70.4163 32.9266 71.1369 33.0361 71.8391 32.9215C73.5399 35.7925 81.4292 48.4884 86.2984 45.5817C90.3912 43.1385 97.6597 31.0332 99.7951 27.0185C100.137 26.3766 100.265 25.6434 100.161 24.9245C100.057 24.2055 99.7259 23.538 99.216 23.018Z" fill="#FFB6B6"/>
<path d="M99.5123 28.5617C99.9775 27.3077 100.35 25.9255 99.9469 24.6505C99.5032 23.2483 98.14 22.2443 96.6823 22.0001C95.2246 21.7558 93.7096 22.1929 92.4563 22.9723C91.203 23.7518 90.1837 24.8526 89.2782 26.0145L89.5207 25.6306C88.3418 27.1664 87.1629 28.7023 85.984 30.2381C88.9762 32.3053 91.9684 34.3725 94.9606 36.4397C96.9108 34.0857 98.4495 31.4227 99.5123 28.5617Z" fill="#FF865E"/>
<path d="M86.6075 134.353L82.3218 134.353L80.2828 117.914L86.6084 117.914L86.6075 134.353Z" fill="#FFB6B6"/>
<path d="M86.7585 138.799L73.5789 138.799V138.633C73.579 137.28 74.1195 135.983 75.0815 135.026C76.0435 134.07 77.3483 133.532 78.7087 133.532H78.7091L81.1165 131.716L85.6082 133.532L86.7587 133.532L86.7585 138.799Z" fill="#2F2E41"/>
<path d="M149.477 73.8289L151.275 77.6969L137.128 86.4389L134.472 80.7297L149.477 73.8289Z" fill="#FFB6B6"/>
<path d="M153.471 71.826L159.004 83.721L158.853 83.7906C157.618 84.3585 156.207 84.4154 154.93 83.9488C153.653 83.4822 152.614 82.5303 152.043 81.3025L152.043 81.3022L149.375 79.8919L149.147 75.0755L148.664 74.0371L153.471 71.826Z" fill="#2F2E41"/>
<path d="M54.6138 8.25569C55.4939 7.99299 56.0584 7.28646 55.8746 6.67762C55.6909 6.06878 54.8284 5.78817 53.9482 6.05088C53.0681 6.31359 52.5036 7.02012 52.6874 7.62896C52.8712 8.2378 53.7336 8.5184 54.6138 8.25569Z" fill="#E6E6E6"/>
<path d="M65.4786 7.71662C66.3588 7.45392 66.9233 6.74739 66.7395 6.13855C66.5557 5.52971 65.6933 5.24911 64.8131 5.51182C63.933 5.77452 63.3685 6.48105 63.5522 7.08989C63.736 7.69873 64.5985 7.97933 65.4786 7.71662Z" fill="#3F3D56"/>
<path d="M52.9657 17.3097C53.8458 17.047 54.4103 16.3405 54.2266 15.7316C54.0428 15.1228 53.1803 14.8422 52.3002 15.1049C51.42 15.3676 50.8555 16.0741 51.0393 16.683C51.2231 17.2918 52.0856 17.5724 52.9657 17.3097Z" fill="#FF6584"/>
<path d="M49.5388 21.0945C49.9379 21.0326 50.189 20.5199 50.0995 19.9492C50.0101 19.3786 49.6139 18.9662 49.2147 19.0281C48.8155 19.09 48.5645 19.6028 48.654 20.1734C48.7434 20.744 49.1396 21.1564 49.5388 21.0945Z" fill="#E6E6E6"/>
<path d="M48.9409 27.9052C49.34 27.8433 49.5911 27.3305 49.5016 26.7599C49.4122 26.1893 49.016 25.7769 48.6168 25.8388C48.2176 25.9007 47.9666 26.4134 48.0561 26.9841C48.1455 27.5547 48.5417 27.9671 48.9409 27.9052Z" fill="#3F3D56"/>
<path d="M59.488 14.5194C59.8872 14.4575 60.1382 13.9448 60.0488 13.3742C59.9593 12.8036 59.5631 12.3912 59.164 12.453C58.7648 12.5149 58.5137 13.0277 58.6032 13.5983C58.6927 14.1689 59.0888 14.5813 59.488 14.5194Z" fill="#E6E6E6"/>
<path d="M53.9295 12.7127C54.3287 12.6508 54.5798 12.1381 54.4903 11.5675C54.4008 10.9969 54.0047 10.5845 53.6055 10.6463C53.2063 10.7082 52.9552 11.221 53.0447 11.7916C53.1342 12.3622 53.5303 12.7746 53.9295 12.7127Z" fill="#FF6584"/>
<path d="M60.4262 6.90177C60.8254 6.83987 61.0765 6.32711 60.987 5.75649C60.8975 5.18588 60.5014 4.77348 60.1022 4.83538C59.703 4.89727 59.4519 5.41002 59.5414 5.98064C59.6309 6.55126 60.027 6.96366 60.4262 6.90177Z" fill="#3F3D56"/>
<path d="M121.215 115.579C122.125 115.447 122.787 114.83 122.695 114.201C122.603 113.572 121.791 113.169 120.882 113.301C119.973 113.432 119.31 114.049 119.402 114.678C119.494 115.307 120.306 115.71 121.215 115.579Z" fill="#E6E6E6"/>
<path d="M110.389 114.528C111.298 114.396 111.96 113.78 111.868 113.151C111.776 112.522 110.965 112.118 110.055 112.25C109.146 112.382 108.483 112.998 108.575 113.627C108.667 114.256 109.479 114.66 110.389 114.528Z" fill="#3F3D56"/>
<path d="M124.18 106.862C125.09 106.731 125.752 106.114 125.66 105.485C125.568 104.856 124.756 104.453 123.847 104.584C122.937 104.716 122.275 105.333 122.367 105.962C122.459 106.591 123.271 106.994 124.18 106.862Z" fill="#FF6584"/>
<path d="M127.811 103.432C128.215 103.429 128.539 102.958 128.535 102.38C128.53 101.803 128.199 101.337 127.795 101.34C127.391 101.343 127.067 101.814 127.072 102.391C127.076 102.969 127.407 103.435 127.811 103.432Z" fill="#E6E6E6"/>
<path d="M129.406 96.7815C129.81 96.7785 130.134 96.3079 130.13 95.7304C130.126 95.1529 129.794 94.6872 129.39 94.6902C128.986 94.6933 128.662 95.1639 128.667 95.7414C128.671 96.3189 129.002 96.7846 129.406 96.7815Z" fill="#3F3D56"/>
<path d="M117 108.485C117.404 108.482 117.728 108.011 117.724 107.434C117.719 106.856 117.388 106.391 116.984 106.394C116.58 106.397 116.256 106.867 116.261 107.445C116.265 108.022 116.596 108.488 117 108.485Z" fill="#E6E6E6"/>
<path d="M122.232 111.083C122.636 111.08 122.959 110.609 122.955 110.032C122.951 109.454 122.62 108.988 122.216 108.991C121.812 108.994 121.488 109.465 121.492 110.043C121.496 110.62 121.828 111.086 122.232 111.083Z" fill="#FF6584"/>
<path d="M114.949 115.884C115.353 115.881 115.677 115.41 115.672 114.833C115.668 114.255 115.337 113.79 114.933 113.793C114.529 113.796 114.205 114.266 114.209 114.844C114.214 115.421 114.545 115.887 114.949 115.884Z" fill="#3F3D56"/>
<path d="M93.3479 60.0493L90.7431 63.2213C90.8023 64.0804 90.5301 64.5712 89.7211 64.4658C89.7211 64.4658 89.8419 66.0387 88.8507 65.5258C87.8596 65.0128 88.1026 66.4368 88.1026 66.4368L87.362 67.3387C87.362 67.3387 87.3388 68.8726 86.6084 68.2565C85.8779 67.6403 85.6436 69.4313 85.6436 69.4313L84.7141 70.5632L75.2377 82.1033L80.5499 124.518L86.7586 124.13L88.2721 86.9465C88.6581 85.9212 89.244 85.3841 90.1398 85.6035C90.541 85.6909 90.7756 85.451 90.9233 85.0401L91.6371 84.5269L100.98 77.8085L113.322 98.8408L144.007 82.7481L141.145 77.2743L119.618 84.3565L119.053 77.6594C118.317 77.2335 118.441 76.7245 118.928 76.1803L118.787 74.5092C119.517 74.0638 119.156 73.3579 118.628 72.6122C117.525 71.8027 117.633 70.8806 118.399 69.8974C118.399 69.8974 119.366 57.3181 114.678 55.5823C109.99 53.8466 93.3479 60.0493 93.3479 60.0493Z" fill="#2F2E41"/>
<path d="M102.55 18.7587L96.6671 19.0326L93.5845 23.4117C91.4383 28.1067 90.8491 33.3588 91.9019 38.4088L94.0249 48.5913L93.4624 56.1421C91.9554 57.3511 91.8301 58.7723 93.1441 60.4148C91.5263 65.9653 105.292 63.4672 118.025 61.5096C118.069 58.8651 117.38 56.1724 115.603 53.4083L117.316 31.3472L110.979 23.8496L106.129 20.6732L102.55 18.7587Z" fill="#FF865E"/>
<path d="M108.056 24.8095C107.586 25.0899 107.189 25.4779 106.9 25.9412C106.61 26.4045 106.436 26.9297 106.391 27.4734C106.347 28.0171 106.433 28.5634 106.644 29.0672C106.854 29.5709 107.182 30.0176 107.601 30.3699C108.311 34.9495 112.72 39.3612 119.653 43.2116L109.335 50.2462C108.676 49.9797 107.949 49.9275 107.258 50.0973C106.567 50.267 105.948 50.65 105.49 51.1912C105.032 51.7324 104.757 52.404 104.707 53.1098C104.656 53.8155 104.831 54.5191 105.207 55.1197C105.584 55.7203 106.142 56.1869 106.801 56.4527C107.46 56.7186 108.188 56.7699 108.878 56.5993C109.569 56.4288 110.187 56.0452 110.645 55.5035C111.103 54.9618 111.376 54.2898 111.426 53.584C114.628 52.6011 128.872 47.8989 127.152 42.5167C125.706 37.9927 115.539 28.1656 112.104 25.1727C111.555 24.6938 110.867 24.4006 110.14 24.3354C109.412 24.2701 108.683 24.4361 108.056 24.8095Z" fill="#FFB6B6"/>
<path d="M96.835 45.3245C96.1492 45.3233 95.4889 45.0653 94.9857 44.6018C94.4825 44.1384 94.1733 43.5035 94.1197 42.8236L93.7543 38.1916C93.6978 37.4743 93.9301 36.764 94.4001 36.2171C94.8702 35.6701 95.5395 35.3312 96.2608 35.2749L105.309 34.5693C106.03 34.5131 106.745 34.7441 107.295 35.2115C107.845 35.679 108.186 36.3445 108.242 37.0617L108.607 41.6938C108.664 42.411 108.432 43.1213 107.962 43.6683C107.492 44.2152 106.822 44.5541 106.101 44.6104L97.0526 45.316C96.9798 45.3217 96.9073 45.3245 96.835 45.3245Z" fill="#F2F2F2"/>
<path d="M98.1373 17.6482C102.392 17.6482 105.84 14.2188 105.84 9.98829C105.84 5.75783 102.392 2.32837 98.1373 2.32837C93.883 2.32837 90.4342 5.75783 90.4342 9.98829C90.4342 14.2188 93.883 17.6482 98.1373 17.6482Z" fill="#FFB6B6"/>
<path d="M106.141 5.11335C105.776 4.64216 105.358 4.20941 105.04 3.70551C104.734 3.22036 104.525 2.67578 104.18 2.21723C103.16 0.860998 101.263 0.583658 99.568 0.414751C98.4489 0.303231 97.3299 0.191707 96.2108 0.0801769C95.5819 -0.00835389 94.9445 -0.019802 94.3128 0.0460957C93.7118 0.138912 93.1406 0.368829 92.644 0.717834C92.1473 1.06684 91.7386 1.52545 91.4499 2.05776C91.122 2.6747 90.903 3.44361 90.2637 3.73135C89.9624 3.82583 89.6556 3.90168 89.3449 3.9585C89.0428 4.05166 88.7392 4.29163 88.7505 4.60591C88.7714 5.18787 89.804 5.52098 89.552 6.04666C89.3295 6.51089 88.4387 6.1815 88.3122 6.88232C88.2952 6.98345 88.2995 7.08702 88.325 7.1864C88.3505 7.28577 88.3966 7.37876 88.4603 7.45939C88.7476 7.82538 89.2191 7.92048 89.6611 8.00124L88.8762 9.11744C91.4175 10.1558 94.2466 10.265 96.8612 9.42568C97.2515 9.29707 97.6681 9.26796 98.0726 9.34103C98.4772 9.4141 98.8569 9.587 99.1768 9.84389C99.4967 10.1008 99.7466 10.4334 99.9037 10.8113C100.061 11.1892 100.12 11.6003 100.076 12.0068L100.072 12.0385C100.055 12.1611 100.072 12.286 100.12 12.3998C100.169 12.5137 100.248 12.6124 100.348 12.6853C100.747 12.9544 101.151 12.5768 101.332 12.2031C101.516 11.823 101.638 11.3619 102.082 11.2287C102.263 11.1832 102.455 11.1975 102.627 11.2693C102.8 11.3412 102.944 11.4668 103.039 11.6273C103.384 12.1668 103.243 12.8107 103.044 13.3816C102.583 14.6991 101.836 15.8992 100.856 16.8964C102.529 16.7863 102.039 16.9531 103.713 16.843L104.18 16.9153C105.3 16.2205 105.855 14.8987 106.15 13.6193C106.82 10.7173 107.968 7.47203 106.141 5.11335Z" fill="#2F2E41"/>
<path d="M112.672 24.1824C111.56 23.432 110.3 22.7401 108.958 22.8232C107.483 22.9146 106.175 23.9893 105.587 25.3377C104.998 26.6861 105.061 28.2534 105.521 29.6505C105.98 31.0475 106.81 32.2959 107.727 33.4492L107.41 33.1228C108.626 34.6298 109.842 36.1367 111.058 37.6437C113.795 35.252 116.532 32.8604 119.269 30.4687C117.439 28.0207 115.209 25.8957 112.672 24.1824Z" fill="#FF865E"/>
<path d="M97.9237 138.397L97.9271 138.244C97.9966 135.685 98.6257 133.171 99.7707 130.878C100.916 128.585 102.549 126.568 104.557 124.966C105.691 124.076 106.933 123.332 108.253 122.751L108.379 122.695L108.401 122.831C108.657 124.447 109.062 126.096 109.25 126.828L110.515 121.92L110.656 121.88C111.3 121.692 111.986 121.7 112.626 121.903C113.266 122.106 113.83 122.496 114.245 123.02C114.679 123.545 114.944 124.187 115.007 124.864C115.071 125.54 114.929 126.22 114.6 126.815C114.305 127.361 114.016 127.931 113.735 128.482C112.772 130.376 111.776 132.335 110.325 133.856C109.215 134.997 107.863 135.877 106.368 136.432C104.872 136.986 103.271 137.202 101.681 137.063L97.9237 138.397Z" fill="#F2F2F2"/>
<path d="M115.796 138.839L55.9602 138.907C55.9257 138.907 55.8916 138.9 55.8598 138.887C55.828 138.874 55.7991 138.855 55.7748 138.83C55.7504 138.806 55.7311 138.777 55.718 138.746C55.7048 138.714 55.698 138.68 55.698 138.646C55.698 138.612 55.7048 138.578 55.718 138.546C55.7311 138.515 55.7504 138.486 55.7748 138.462C55.7991 138.437 55.828 138.418 55.8598 138.405C55.8916 138.392 55.9257 138.385 55.9602 138.385L115.796 138.318C115.865 138.318 115.932 138.345 115.981 138.394C116.03 138.443 116.058 138.51 116.058 138.579C116.058 138.648 116.03 138.714 115.981 138.763C115.932 138.812 115.865 138.839 115.796 138.839Z" fill="#CACACA"/>
<path d="M171.723 138.839L137.209 138.907C137.175 138.907 137.14 138.9 137.109 138.887C137.077 138.874 137.048 138.855 137.024 138.83C136.999 138.806 136.98 138.777 136.967 138.746C136.954 138.714 136.947 138.68 136.947 138.646C136.947 138.612 136.954 138.578 136.967 138.546C136.98 138.515 136.999 138.486 137.024 138.462C137.048 138.437 137.077 138.418 137.109 138.405C137.14 138.392 137.175 138.385 137.209 138.385L171.723 138.318C171.793 138.318 171.859 138.345 171.909 138.394C171.958 138.443 171.985 138.51 171.985 138.579C171.985 138.648 171.958 138.714 171.909 138.763C171.859 138.812 171.793 138.839 171.723 138.839Z" fill="#CACACA"/>
<path d="M34.5471 138.839L2.23471 138.907C2.20028 138.907 2.16619 138.9 2.13438 138.887C2.10257 138.874 2.07367 138.855 2.04932 138.83C2.02498 138.806 2.00567 138.777 1.99249 138.746C1.97932 138.714 1.97253 138.68 1.97253 138.646C1.97253 138.612 1.97932 138.578 1.99249 138.546C2.00567 138.515 2.02498 138.486 2.04932 138.462C2.07367 138.437 2.10257 138.418 2.13438 138.405C2.16619 138.392 2.20028 138.385 2.23471 138.385L34.5471 138.318C34.5816 138.318 34.6157 138.325 34.6476 138.338C34.6795 138.351 34.7085 138.37 34.7329 138.394C34.7574 138.418 34.7767 138.447 34.79 138.479C34.8032 138.51 34.81 138.544 34.81 138.579C34.81 138.613 34.8032 138.647 34.79 138.679C34.7767 138.71 34.7574 138.739 34.7329 138.763C34.7085 138.788 34.6795 138.807 34.6476 138.82C34.6157 138.833 34.5816 138.84 34.5471 138.839Z" fill="#CACACA"/>
<path d="M69.5453 21.9541C69.4183 21.9541 69.2927 21.9803 69.1764 22.031C69.0601 22.0817 68.9556 22.1558 68.8696 22.2487C68.7836 22.3415 68.7178 22.4511 68.6765 22.5706C68.6352 22.69 68.6193 22.8166 68.6297 22.9425C69.568 27.3398 69.9807 31.533 69.6629 35.4427C69.6829 35.6709 69.7879 35.8833 69.9573 36.0385C70.1267 36.1936 70.3482 36.2803 70.5785 36.2814H76.5058C76.7361 36.2803 76.9576 36.1936 77.127 36.0385C77.2964 35.8833 77.4014 35.6709 77.4215 35.4427C76.9426 31.4991 77.449 27.2885 78.4547 22.9425C78.4651 22.8166 78.4491 22.69 78.4078 22.5706C78.3665 22.4511 78.3008 22.3415 78.2147 22.2487C78.1287 22.1558 78.0242 22.0817 77.9079 22.031C77.7916 21.9803 77.666 21.9541 77.539 21.9541H69.5453Z" fill="#FF865E"/>
<path d="M78.9293 23.6202L78.4871 21.5314C78.4469 21.3414 78.3422 21.171 78.1906 21.0487C78.039 20.9264 77.8498 20.8597 77.6545 20.8597H74.8939C74.8831 20.8232 74.8655 20.7891 74.8421 20.7591L74.5353 20.3778C74.5064 20.3419 74.4698 20.3129 74.428 20.293C74.3863 20.273 74.3407 20.2627 74.2944 20.2627H72.5899C72.5436 20.2627 72.4979 20.273 72.4562 20.293C72.4145 20.3129 72.3778 20.3419 72.3489 20.3778L72.0422 20.7591C72.0187 20.7891 72.0011 20.8232 71.9903 20.8597H69.4298C69.2346 20.8597 69.0454 20.9264 68.8938 21.0487C68.7422 21.171 68.6375 21.3414 68.5973 21.5314L68.1551 23.6202C68.129 23.7434 68.1309 23.8708 68.1606 23.9932C68.1904 24.1155 68.2472 24.2298 68.327 24.3275C68.4067 24.4253 68.5074 24.5041 68.6217 24.5583C68.736 24.6124 68.861 24.6405 68.9876 24.6405C71.8793 25.5517 74.9157 25.5517 78.0968 24.6405C78.2234 24.6405 78.3484 24.6124 78.4627 24.5583C78.5769 24.5041 78.6776 24.4253 78.7574 24.3275C78.8372 24.2298 78.894 24.1155 78.9237 23.9932C78.9535 23.8708 78.9554 23.7434 78.9293 23.6202Z" fill="#3F3D56"/>
</g>
<defs>
<clipPath id="clip0_10_550">
<rect width="198" height="139" fill="white"/>
</clipPath>
</defs>
</svg>
